<svg xmlns="http://www.w3.org/2000/svg" width="91.839" height="122.88">
    <path
        d="M81.75 64.617H41.365c-1.738 0-3.147-1.423-3.147-3.178 0-1.756 1.409-3.179 3.147-3.179h40.383L68.559 43.155a3.19 3.19 0 01.271-4.469 3.112 3.112 0 014.425.273l17.798 20.383a3.192 3.192 0 01-.011 4.21L73.254 83.92a3.11 3.11 0 01-4.425.273 3.19 3.19 0 01-.271-4.47L81.75 64.617zM70.841 99.629a3.178 3.178 0 116.357 0v14.242a8.986 8.986 0 01-2.648 6.36 8.988 8.988 0 01-6.36 2.648H9.009a8.99 8.99 0 01-6.363-2.646A8.98 8.98 0 010 113.871V9.009a8.987 8.987 0 012.644-6.365A8.983 8.983 0 019.009 0h59.18a8.986 8.986 0 016.362 2.646 8.988 8.988 0 012.646 6.363V23.25a3.178 3.178 0 01-6.357 0V9.009c0-.722-.301-1.385-.785-1.869a2.641 2.641 0 00-1.867-.783H9.009c-.726 0-1.389.3-1.87.782a2.636 2.636 0 00-.782 1.87v104.862c0 .724.301 1.385.783 1.867a2.645 2.645 0 001.869.785h59.18a2.64 2.64 0 001.865-.786 2.639 2.639 0 00.787-1.866V99.629z"
        fill="#FFFFFF" />
</svg>